<svg xmlns="http://www.w3.org/2000/svg" width="32" height="37" viewBox="0 0 32 37"><defs><style>.a{fill:#fff;}.b{fill:none;}</style></defs><g transform="translate(3 8.533)"><path class="a" d="M3464.312,105.744a7.237,7.237,0,0,1-.805-3.637,7.544,7.544,0,0,1,7.969-7.112,7.921,7.921,0,0,1,.871.081,6.57,6.57,0,0,1,5.545,4.384l.4.718a3.146,3.146,0,0,0,.676.956,3.607,3.607,0,0,0,2.572.944,4.06,4.06,0,0,0,0-8.119,4.025,4.025,0,0,0-3.918,2.583,5.928,5.928,0,0,0-2.753-1.942,6.9,6.9,0,0,1,5.669-3.86,8.055,8.055,0,0,1,.883-.085,7.643,7.643,0,0,1,8.071,7.205,7.337,7.337,0,0,1-.815,3.685l-.022.044.729,4.856-4.813-1.267a7.937,7.937,0,0,1-2.508.51q-.164.007-.325.007h0a7.324,7.324,0,0,1-7.024-4.928,5.449,5.449,0,0,0-.255-.6l-.025-.05a3.415,3.415,0,0,0-2.971-1.865h-.1a4.008,4.008,0,0,0,0,8.016,4.221,4.221,0,0,0,3.871-2.476,5.9,5.9,0,0,0,2.732,2.043,7.7,7.7,0,0,1-6.8,4h0c-.107,0-.214,0-.322-.007a7.847,7.847,0,0,1-2.479-.5l-4.752,1.249.72-4.794Z" transform="translate(-3463.5 -90.648)"/></g><rect class="b" width="32" height="37"/></svg>