<svg xmlns="http://www.w3.org/2000/svg" xmlns:xlink="http://www.w3.org/1999/xlink" width="122.9" height="120" viewBox="0 0 122.9 120"><defs><style>.a{fill:none;}.b{fill:url(#a);}.c{clip-path:url(#b);}.d{fill:#40abce;}</style><linearGradient id="a" x1="-0.095" y1="1.229" x2="1.623" y2="-0.582" gradientUnits="objectBoundingBox"><stop offset="0" stop-color="#008939"/><stop offset="0.02" stop-color="#008f53"/><stop offset="0.05" stop-color="#00997d"/><stop offset="0.08" stop-color="#00a19f"/><stop offset="0.11" stop-color="#00a7ba"/><stop offset="0.15" stop-color="#00abcd"/><stop offset="0.18" stop-color="#00aed8"/><stop offset="0.22" stop-color="#00afdc"/><stop offset="0.44" stop-color="#ffcd39"/><stop offset="0.78" stop-color="#e9ee3a"/><stop offset="1" stop-color="#d53848"/></linearGradient><clipPath id="b"><rect class="a" width="122.9" height="17" transform="translate(0 0)"/></clipPath></defs><g transform="translate(-659 -140)"><path class="b" d="M3467.248,160.321a33.406,33.406,0,0,1-3.718-16.787c.808-18.906,17.118-33.637,36.781-32.824a36.539,36.539,0,0,1,4.022.375c12.753,1.386,21.372,9.414,25.594,20.234l1.855,3.314a14.537,14.537,0,0,0,3.12,4.411,16.652,16.652,0,0,0,11.869,4.359c10.939,0,18.53-7.933,18.53-18.735s-7.59-18.735-18.53-18.735c-13.014,0-17.727,10.277-18.083,11.922-1.785-2.6-6.531-6.859-12.709-8.965,4.657-9.819,14.074-16.5,26.163-17.817a37.121,37.121,0,0,1,4.076-.393c19.915-.814,36.434,14.105,37.252,33.255a33.843,33.843,0,0,1-3.764,17.007l-.1.2,3.364,22.41-22.213-5.845a36.639,36.639,0,0,1-11.574,2.352q-.755.031-1.5.031h0c-15.5,0-27.524-9.32-32.421-22.746a25.37,25.37,0,0,0-1.175-2.75l-.117-.229a15.766,15.766,0,0,0-13.712-8.606h-.483c-10.8,0-18.3,7.833-18.3,18.5s7.492,18.65,18.3,18.5a19.479,19.479,0,0,0,17.868-11.429c2.847,4.153,6.365,6.577,12.608,9.431a35.542,35.542,0,0,1-31.37,18.476h0q-.739,0-1.485-.03a36.223,36.223,0,0,1-11.439-2.32l-21.933,5.765,3.322-22.127Z" transform="translate(-2803.5 49.352)"/><g transform="translate(659 243)"><g class="c" transform="translate(0 0)"><path class="d" d="M0,1.6H1.554V11.7c-.023,3.793,1.782,5.232,4.776,5.232,3.016,0,4.821-1.439,4.8-5.232V1.6h1.554V12.042c0,3.359-1.8,6.215-6.352,6.215C1.805,18.257,0,15.4,0,12.042Z" transform="translate(0 -1.257)"/><path class="d" d="M75.83,1.6h1.736l9.506,13.8h.046V1.6h1.554V17.915H86.935L77.43,4.113h-.046v13.8H75.83Z" transform="translate(-59.585 -1.257)"/><path class="d" d="M153.152,1.6h1.554V16.589h9.14v1.325H153.152Z" transform="translate(-120.342 -1.257)"/><path class="d" d="M216.2,0c5.118,0,7.677,4.044,7.677,8.5S221.322,17,216.2,17c-5.141,0-7.7-4.044-7.7-8.5S211.062,0,216.2,0m0,15.675c4.3,0,6.124-3.61,6.124-7.175S220.5,1.326,216.2,1.326c-4.318,0-6.146,3.61-6.146,7.175s1.828,7.175,6.146,7.175" transform="translate(-163.835 -0.001)"/><path class="d" d="M302.8,5.278a4.947,4.947,0,0,0-5-3.953c-4.319,0-6.147,3.61-6.147,7.175s1.828,7.175,6.147,7.175c3.016,0,4.936-2.331,5.232-5.233h1.554c-.434,4-2.97,6.558-6.786,6.558-5.141,0-7.7-4.044-7.7-8.5s2.559-8.5,7.7-8.5c3.085,0,6.146,1.851,6.558,5.278Z" transform="translate(-227.946 0)"/><path class="d" d="M370.934,1.6h1.554v8.774L381.97,1.6h2.1l-7.289,6.741,7.632,9.574H382.4l-6.786-8.5-3.13,2.9v5.6h-1.554Z" transform="translate(-291.469 -1.257)"/><path class="d" d="M441.857,1.6h7.358c4.067,0,5.644,2.582,5.644,5.233s-1.577,5.233-5.644,5.233h-3.77v5.849h-3.588Zm3.588,7.677h2.788c1.668,0,3.153-.365,3.153-2.445s-1.485-2.445-3.153-2.445h-2.788Z" transform="translate(-347.198 -1.257)"/><path class="d" d="M505.321,1.6H509l6.1,16.314h-3.724l-1.234-3.633h-6.1l-1.28,3.633h-3.633Zm-.343,10.008h4.227l-2.056-5.987H507.1Z" transform="translate(-392.201 -1.257)"/></g></g></g></svg>